<svg width="113" height="32" viewBox="0 0 113 32" fill="none" xmlns="http://www.w3.org/2000/svg">
<path d="M29.2956 0H34.4787V31.9998H29.2956V0Z" fill="#1A1A1A"/>
<path d="M52.5067 21.8585C52.5067 26.8162 48.4504 27.2669 47.0983 27.2669C43.9434 27.2669 43.4927 24.3373 43.4927 22.7599V10.3656H38.3096V22.5345C38.3096 25.4641 39.211 28.1683 41.0138 29.7458C42.5913 31.3232 44.6194 31.9993 47.0983 31.9993C48.9011 31.9993 51.1546 31.5486 52.5067 30.1965V31.9993H57.6898V10.3656H52.5067V21.8585Z" fill="#1A1A1A"/>
<path d="M67.8306 2.47815H62.6475V10.3654H58.8165V15.3231H62.6475V31.9991H67.8306V15.3231H71.6615V10.3654H67.8306V2.47815Z" fill="#1A1A1A"/>
<path d="M87.8867 25.4647C86.76 26.3661 85.1825 27.0422 83.6051 27.0422C79.9994 27.0422 77.5206 24.338 77.5206 20.7324C77.5206 17.1267 79.9994 14.6479 83.6051 14.6479C85.1825 14.6479 86.76 15.0986 87.8867 16.2253L88.5628 16.9014L92.1684 13.5211L91.267 12.8451C89.2388 11.0423 86.5346 9.91553 83.6051 9.91553C77.2952 9.91553 72.5629 14.6479 72.5629 20.9577C72.5629 27.2675 77.2952 31.9999 83.6051 31.9999C86.5346 31.9999 89.2388 30.8731 91.267 29.0703L92.1684 28.3943L88.5628 24.7887L87.8867 25.4647Z" fill="#1A1A1A"/>
<path d="M110.422 12.1689C108.844 10.5915 107.267 9.91543 104.788 9.91543C102.985 9.91543 101.182 10.3661 99.8303 11.7182V0H94.6472V31.9998H99.8303V20.0562C99.8303 15.0985 103.211 14.6478 104.563 14.6478C107.718 14.6478 107.492 17.5774 107.492 19.1548V31.7744H112.675V19.3802C112.675 16.4506 111.999 13.7464 110.422 12.1689Z" fill="#1A1A1A"/>
<path d="M22.0844 24.1131C20.2816 25.9159 17.5774 27.0426 14.6478 27.0426C9.01403 27.0426 4.95771 22.5356 4.95771 16.4511C4.95771 10.3667 9.01402 5.85967 14.8731 5.85967C17.5773 5.85967 20.2816 6.98642 22.3097 9.01457L22.9858 9.69063L26.366 6.31037L25.69 5.63431C22.7604 2.70475 18.9295 1.1273 14.8731 1.1273C6.30982 0.901949 0 7.66247 0 16.4511C0 25.2398 6.30982 32.0003 14.6478 32.0003C18.7041 32.0003 22.7604 30.4229 25.4646 27.4933L26.1407 26.8173L22.7604 23.437L22.0844 24.1131Z" fill="#1A1A1A"/>
<path d="M83.3797 24.5643C85.371 24.5643 86.9853 22.95 86.9853 20.9586C86.9853 18.9673 85.371 17.353 83.3797 17.353C81.3883 17.353 79.774 18.9673 79.774 20.9586C79.774 22.95 81.3883 24.5643 83.3797 24.5643Z" fill="#EF4335"/>
</svg>
